<svg width="40" height="40" viewBox="0 0 40 40" fill="none" xmlns="http://www.w3.org/2000/svg">
<path fill-rule="evenodd" clip-rule="evenodd" d="M36.5397 17.6113C36.3023 19.2559 35.7397 20.8189 34.906 22.2563C34.9685 22.6121 35.0005 22.9719 35.0005 23.3331C35.0005 24.5878 34.637 25.7886 33.9636 26.8796C33.6274 27.4242 33.5409 28.0623 33.5076 28.4839C33.4695 28.9671 33.4823 29.4958 33.5168 30.0037C33.5555 30.5735 33.6256 31.1717 33.7058 31.736C33.0553 31.5463 32.3502 31.3558 31.6773 31.204C31.1176 31.0777 30.5449 30.9701 30.0262 30.9165C29.5737 30.8698 28.9198 30.8336 28.3351 31.0226C27.0566 31.4359 25.6498 31.6665 24.1672 31.6665C22.404 31.6665 20.7847 31.3535 19.3653 30.8098C19.0239 30.8253 18.68 30.8331 18.3338 30.8331C16.3261 30.8331 14.3938 30.5691 12.5859 30.0811C15.2142 33.1209 19.547 34.9998 24.1672 34.9998C25.9721 34.9998 27.7044 34.7227 29.3009 34.2135C29.3036 34.2136 29.3087 34.2135 29.3163 34.2133C29.3573 34.2125 29.4711 34.2103 29.6837 34.2322C30.018 34.2667 30.4479 34.3437 30.9438 34.4556C31.931 34.6783 33.0404 35.007 33.9051 35.2814C35.7387 35.8635 37.5153 34.2634 37.1876 32.4027C37.0465 31.6019 36.9 30.6245 36.8425 29.7778C36.8136 29.3521 36.8104 29.0026 36.8306 28.7462C36.839 28.6399 36.8498 28.5733 36.8566 28.5379C37.7943 26.9846 38.3339 25.216 38.3339 23.3331C38.3339 21.2105 37.6746 19.2723 36.5397 17.6113Z" fill="#FF5A30"/>
<path fill-rule="evenodd" clip-rule="evenodd" d="M9.3287 9.4971C7.08211 11.2151 5.83363 13.4703 5.83363 15.8335C5.83363 17.0119 6.1404 18.1468 6.71594 19.2022C6.93515 19.6042 6.99734 20.0188 7.01957 20.2995C7.04382 20.6056 7.03173 20.9202 7.00512 21.2144C6.95182 21.8033 6.8247 22.4706 6.67221 23.1279C6.49384 23.8967 6.26529 24.7166 6.03337 25.4865C6.91379 25.1665 7.87606 24.8386 8.78831 24.5724C9.52559 24.3573 10.2702 24.1707 10.9328 24.0659C11.5037 23.9756 12.332 23.8869 13.0452 24.1337C14.6458 24.6874 16.4363 25.0002 18.3336 25.0002C21.9122 25.0002 25.0904 23.8891 27.3386 22.1699C29.5852 20.4519 30.8336 18.1967 30.8336 15.8335C30.8336 13.4703 29.5852 11.2151 27.3386 9.4971C25.0904 7.77794 21.9122 6.66683 18.3336 6.66683C14.755 6.66683 11.5768 7.77794 9.3287 9.4971ZM7.30387 6.84924C10.1831 4.64751 14.0882 3.3335 18.3336 3.3335C22.5791 3.3335 26.4842 4.64751 29.3634 6.84924C32.2441 9.05215 34.167 12.2136 34.167 15.8335C34.167 19.4534 32.2441 22.6148 29.3634 24.8177C26.4842 27.0195 22.5791 28.3335 18.3336 28.3335C16.0952 28.3335 13.9571 27.9686 12.0157 27.3046C12.0138 27.31 11.8563 27.2946 11.4534 27.3583C10.989 27.4318 10.3962 27.5756 9.72187 27.7724C8.37942 28.164 6.87184 28.7181 5.72353 29.165C3.73415 29.9392 1.70756 28.0286 2.37783 25.9934C2.73308 24.9147 3.15205 23.5516 3.42512 22.3746C3.56268 21.7816 3.65194 21.2831 3.68535 20.914C3.69694 20.7858 3.69994 20.6924 3.69927 20.6293C2.93213 19.1633 2.5003 17.5422 2.5003 15.8335C2.5003 12.2136 4.42314 9.05215 7.30387 6.84924ZM3.69378 20.5384C3.69394 20.5382 3.69475 20.5426 3.69572 20.5523C3.6941 20.5434 3.69362 20.5386 3.69378 20.5384Z" fill="#FF5A30"/>
</svg>
