<svg width="22" height="20" viewBox="0 0 22 20" fill="none" xmlns="http://www.w3.org/2000/svg">
<path d="M9.69978 8.70049L3.4998 0.600488C3.0998 0.200488 2.5998 0.000488281 2.0998 0.000488281C1.5998 0.000488281 1.0998 0.200488 0.699803 0.600488C-0.000194848 1.40049 -0.000194848 2.60049 0.699803 3.40049L5.59979 10.0005L0.699803 16.6005C-0.000194848 17.4005 -0.000194848 18.6005 0.699803 19.4005C1.0998 19.8005 1.5998 20.0005 2.0998 20.0005C2.5998 20.0005 3.0998 19.8005 3.4998 19.4005L9.69978 11.3005C10.3998 10.7005 10.3998 9.50049 9.69978 8.70049Z" fill="#FF5A30"/>
<path d="M12.3426 8.70049L18.5426 0.600488C18.9426 0.200488 19.4426 0.000488281 19.9426 0.000488281C20.4426 0.000488281 20.9426 0.200488 21.3426 0.600488C22.0426 1.40049 22.0426 2.60049 21.3426 3.40049L16.4426 10.0005L21.3426 16.6005C22.0426 17.4005 22.0426 18.6005 21.3426 19.4005C20.9426 19.8005 20.4426 20.0005 19.9426 20.0005C19.4426 20.0005 18.9426 19.8005 18.5426 19.4005L12.3426 11.3005C11.6426 10.7005 11.6426 9.50049 12.3426 8.70049Z" fill="#FF5A30"/>
</svg>
